/* XPM */
static char *result[] = {
/* columns rows colors chars-per-pixel */
"64 64 214 2 ",
"   c #000000",
".  c #0B0002",
"X  c #140003",
"o  c #1B0004",
"O  c #240106",
"+  c #2B0107",
"@  c #2C0208",
"#  c #340209",
"$  c #3C030A",
"%  c #3B070A",
"&  c #37111C",
"*  c #380D18",
"=  c #2D1522",
"-  c #271B28",
";  c #341621",
":  c #232936",
">  c #322935",
",  c #24303E",
"<  c #2F222D",
"1  c #460107",
"2  c #4D0206",
"3  c #44020B",
"4  c #4B010C",
"5  c #440C0D",
"6  c #4C0B0D",
"7  c #530206",
"8  c #5B0206",
"9  c #53010E",
"0  c #5B010E",
"q  c #550B0C",
"w  c #5B0C0B",
"e  c #47130E",
"r  c #5A150D",
"t  c #57150F",
"y  c #460B19",
"u  c #5C0313",
"i  c #540B14",
"p  c #4A1817",
"a  c #541511",
"s  c #5C1412",
"d  c #551A11",
"f  c #5B1B13",
"g  c #630406",
"h  c #6C0204",
"j  c #69010D",
"k  c #720205",
"l  c #7D020E",
"z  c #7D080C",
"x  c #780107",
"c  c #640111",
"v  c #6C0112",
"b  c #710012",
"n  c #7C0110",
"m  c #720B10",
"M  c #641212",
"N  c #691613",
"B  c #751915",
"V  c #582915",
"C  c #562D17",
"Z  c #632314",
"A  c #6B2316",
"S  c #662B15",
"D  c #762B1A",
"F  c #633419",
"G  c #65391A",
"H  c #7C321A",
"J  c #43343C",
"K  c #6D441E",
"L  c #724A1F",
"P  c #7C5523",
"I  c #2A3745",
"U  c #2B4354",
"Y  c #2F4A5C",
"T  c #384A58",
"R  c #32414D",
"E  c #334F62",
"W  c #3B5667",
"Q  c #3E5E72",
"!  c #415E6A",
"~  c #475B68",
"^  c #415E74",
"/  c #44616E",
"(  c #46667F",
")  c #446577",
"_  c #546572",
"`  c #51565E",
"'  c #840104",
"]  c #8C0103",
"[  c #84030C",
"{  c #8B020C",
"}  c #81080C",
"|  c #930103",
" . c #9C0103",
".. c #93010B",
"X. c #9C010A",
"o. c #831E18",
"O. c #A30104",
"+. c #AB0105",
"@. c #A30109",
"#. c #A80108",
"$. c #B40104",
"%. c #BC0103",
"&. c #852218",
"*. c #89261A",
"=. c #972C1C",
"-. c #83331C",
";. c #8A3C1C",
":. c #9C321D",
">. c #A2341E",
",. c #8A3C20",
"<. c #953D21",
"1. c #AB3921",
"2. c #B13D22",
"3. c #C60001",
"4. c #C90001",
"5. c #8D411D",
"6. c #95441E",
"7. c #954723",
"8. c #925025",
"9. c #BA4624",
"0. c #A75527",
"q. c #B15525",
"w. c #896228",
"e. c #946A2A",
"r. c #9F722D",
"t. c #AC622D",
"y. c #B2692E",
"u. c #B3622C",
"i. c #B96D30",
"p. c #A67C30",
"a. c #BC7532",
"s. c #C34C26",
"d. c #CE5528",
"f. c #C75928",
"g. c #D35A2A",
"h. c #C9632A",
"j. c #DA682C",
"k. c #C47F35",
"l. c #E5692E",
"z. c #E7692E",
"x. c #E3722F",
"c. c #ED6F30",
"v. c #EC7430",
"b. c #EF7831",
"n. c #F37531",
"m. c #F47A32",
"M. c #FB7D33",
"N. c #B28C36",
"B. c #B99338",
"V. c #AB8533",
"C. c #CE8C39",
"Z. c #C78336",
"A. c #C79D3B",
"S. c #D89A3D",
"D. c #D08F3A",
"F. c #FF8134",
"G. c #FE8B37",
"H. c #FA8B37",
"J. c #FD9339",
"K. c #FD9B3B",
"L. c #F6993C",
"P. c #E68837",
"I. c #CCA53E",
"U. c #FDA23E",
"Y. c #FDA83F",
"T. c #EFA33E",
"R. c #DBA840",
"E. c #DCB443",
"W. c #D7B042",
"Q. c #E4AB42",
"!. c #FEAC41",
"~. c #ECBB46",
"^. c #E8B744",
"/. c #FDB343",
"(. c #FDBB45",
"). c #F1BE48",
"_. c #EBC348",
"`. c #F3C349",
"'. c #FEC649",
"]. c #F4CB4A",
"[. c #FDCC4A",
"{. c #FEC147",
"}. c #FFD54D",
"|. c #FFD84E",
" X c #4A6B84",
".X c #476881",
"XX c #4E7186",
"oX c #52768D",
"OX c #54788A",
"+X c #577C91",
"@X c #506F81",
"#X c #5B8196",
"$X c #5D8498",
"%X c #61899D",
"&X c #72949E",
"*X c #6D9AAB",
"=X c #6A96A8",
"-X c #6D96A9",
";X c #74A2B3",
":X c #7CACBB",
">X c #78A5B7",
",X c #81A8B3",
"<X c #83B4C3",
"1X c #87BAC8",
"2X c #8CBCCA",
"3X c #89B6C4",
"4X c #91BDCB",
"5X c #8DC3CF",
"6X c #95C1CE",
"7X c #8FC5D1",
"8X c #92C7D3",
"9X c #96CAD5",
"0X c #A7D2DC",
"qX c #AFD8E2",
/* pixels */
"                                                . X @ 3 q N B o.*.*.o.N s 3 + X                                                 ",
"                                          X # s &.1.s.g.l.v.M.M.M.n.n.n.P.S.a.0.D 5 o .                                         ",
"                                    . @ N :.g.v.M.F.G.F.F.F.F.F.M.F.F.F.!.|.|.}.`.S.t.D % .                                     ",
"                                . @ H a.^.L.F.F.F.F.F.F.F.F.F.F.M.M.F.M.!.}.}.}.}.|.}.`.C.;.% .                                 ",
"                              O D k.`.}.|.Y.F.F.F.F.F.F.F.F.F.F.F.F.F.F./.}.}.}.}.}.}.}.|.].D.-.#                               ",
"                          X a t.~.|.}.}.|.{.H.F.F.F.F.F.F.F.F.F.F.F.F.F.(.}.}.}.}.}.}.}.}.}.|._.i.f X                           ",
"                        O D S.}.|.}.}.}.}.}.U.F.F.F.F.F.M.F.F.F.F.F.F.F.{.}.}.}.}.}.}.}.}.}.}.}.}.Q.-.+                         ",
"                      # 7.~.}.}.}.}.}.}.}.}.Y.F.F.F.F.F.F.F.F.F.F.F.F.G.[.|.}.}.}.}.}.}.}.}.}.}.}.'.m.1.3                       ",
"                    % t.].|.}.}.}.}.}.}.}.}.[.G.F.F.F.M.v.u.6.;.-.-.5.0.I._.|.}.}.}.}.}.}.}.}.}.[.K.F.M.9.q .                   ",
"                  % y.].}.}.}.}.}.}.}.}.}.}.}.U.F.m.q.H r g x ] ] | ' h w F p._.}.}.}.}.}.}.}.}.!.F.F.F.F.d.q .                 ",
"                # 0.}.}.}.}.}.}.}.}.}.}.}.}.|.(.u.A g ] $.3.4.4.4.4.4.4.3.O.h S N.}.}.}.}.}.}.(.F.F.F.F.F.F.d.q .               ",
"              O 1.H.[.}.}.}.}.}.}.}.}.}.}.}.^.P 8  .3.4.4.3.3.3.3.3.3.3.3.4.3.O.w w.].}.}.|.{.J.F.F.F.F.F.F.F.d.6               ",
"            X &.n.F.K.'.}.}.}.}.}.}.}.}.|.I.F k %.4.3.3.3.3.3.3.3.3.3.3.3.3.3.4.%.h P _.}.}.K.F.F.F.M.F.F.F.F.F.9.$             ",
"          . N l.F.F.M.K.[.}.}.}.}.}.}.}.I.V ' 3.3.3.3.3.3.3.3.4.4.3.4.3.3.3.3.3.3.%.h w.].!.F.F.F.F.F.F.F.F.F.F.M.>.O           ",
"          3 d.F.F.F.F.F.K.[.}.}.}.}.|.E.V | 4.3.3.4.3.3.3.3.3.3.3.3.3.3.3.4.3.3.3.4.%.g e.H.F.F.F.F.F.F.F.F.F.M.F.v.B .         ",
"        o :.M.F.F.F.F.F.M.K.[.}.}.|._.G ' 3.3.4.4.4.4.4.4.4.4.3.4.4.4.4.4.4.4.4.4.3.4.+.w f.F.F.F.F.F.F.F.F.F.F.F.F.d.5         ",
"        N z.F.F.F.F.F.F.F.F.K.[.}.}.w.h 3.3.%.O. .{ { } z z x z z z z ' } ] { |  .%.3.3.| Z v.F.F.F.M.F.F.F.F.F.F.M.M.=.X       ",
"      @ 9.F.F.F.F.F.F.F.F.M.F.U.}.B.r %.4.+.d I T E W / W / ! / / ! / ! / W T T R > { 3.3.g 7.F.F.F.F.F.F.F.F.F.F.F.F.l.q       ",
"    . N n.F.F.F.F.F.F.F.F.F.F.F.P.F | 4.%.p ) ;X1X2X1X2X6X6X3X5X1X1X1X1X1X5X5X7X3X#X> X.4.+.r x.F.F.F.F.F.F.F.M.F.F.F.F.>.o     ",
"    O 9.F.F.F.F.F.F.F.F.F.F.F.F.6.h 3.3.m T ;X9X9X8X8X7X8X8X5X5X5X5X5X5X5X8X8X0X0X<X( p %.3.x ;.F.F.F.F.F.F.F.F.F.F.F.F.l.6     ",
"    s c.F.M.F.F.F.F.F.F.F.F.F.x.r +.4.@.> #X1X8X1X<X:X;X;X*X*X*X=X=X*X*X;X>X:X5X9X0X*XR m 3.+.r j.F.F.F.F.F.F.F.F.F.F.F.M.*..   ",
"  X :.M.F.F.F.F.F.F.F.F.F.F.F.6.h 3.%.a W ;X;X=X%X#X#X#X#X#X#X#X#X#X#X#X#X$X$X$X-X,X:XXX< @.3.h 7.F.F.F.F.F.F.F.F.F.F.F.F.f.@   ",
"  # d.F.F.F.F.F.F.F.F.F.F.F.l.r +.4.{ , XX+XoXoXoXoXoXoXoXoXoXoXoXoXOXOXoXoXoXoXOXOX#X#XU i 3.@.f x.F.F.F.F.F.F.F.F.F.J./.Q.d   ",
"  s c.F.F.F.F.F.F.F.F.F.F.F.0.g 3.$.& E  X X X( )  X X X X X X X X X X X X X X X XXX( ( ) : ..3.g q.F.F.F.F.F.F.F.K./.}.|.[.,.. ",
"X *.M.M.F.F.F.F.M.F.F.F.F.F.Z  .3.z : (  X.XT ; y > ^ .X.X( ( .X( .X( ( ( ( ( ( .X( (  X XU i 3.| S m.M.M.M.G.U.{.}.}.}.}.}.y.O ",
"o q.G.M.F.M.F.F.F.F.F.F.F.h.w %.$.y U %X*X.X> k $.h > ( ( .X( ( ( ( .X( ( .X( ( .X.X.X%X;XQ - X.%.w h.F.J.!.'.}.}.}.}.}.}.}.D.% ",
"$ C.[./.K.G.M.M.F.F.F.F.F.5.x 3...= ( 4X9X>X~ k 4.+.% W .X.X( ( ( ( ( ( .X.X XXX+X%X;X7X0X+XI b 3.k 8./.[.}.}.}.}.}.}.}.}.|.^.s ",
"6 R.|.}.}.[./.!.J.F.F.M.b.N X.3.n > OX4XqX9X&Xu 3.3.0 _ ;X;X;X;X;X;X;X;X;X:X:X<X1X7X7X0XqX%XI y %. .F ].}.}.}.}.}.}.}.}.}.}.`.D ",
"N ~.|.}.}.}.}.}.[.{.!.K.h.6 $.3.z - E +X3X9X:Xp %.4.h ` 8X8X8X8X8X9X8X8X7X7X8X7X7X7X9X2X-X@X, i +.3.w I.|.}.}.}.}.}.}.}.}.}.[.<.",
"D _.}.}.}.}.}.}.|.|.}.|.w.0 %.3.{ u = , U ) XXp $.4.] J 3X4X6X2X2X4X2X<X<X:X:X>X*X%XoXW I : y b +.4.k e.|.}.}.}.}.}.}.}.}.}.[.0.",
"H `.}.}.}.}.}.}.}.}.}.].G k 3.3.#.n v u y = - # +.4.O.* E Q Q Q ^ ) ^ Q W E Y U I : - ; i c b { 3.4. .G ].}.}.}.}.}.}.}.}.}.}.t.",
"-.`.}.}.}.}.}.}.}.}.|.E.p ' 3.3.3.#.[ n b v c $ O.4.+.# & = = = = = = ; ; ; * * i u c v b n X.%.3.3.%.d E.}.}.}.}.}.}.}.}.}.|.i.",
"-._.}.}.}.}.}.}.}.}.|.B.3 { 3.3.3.3.3.$.+.X.{ 1  .4.$.3 c b b v v v v b b b b b b n [ { @.%.4.3.3.3.3.g N.|.|.}.}.}.}.}.}.}.}.y.",
"D `.}.}.}.}.}.}.}.|.|.e.9 { 3.3.3.3.3.4.3.4.%.7  .3.%.2 ' @.X.X.X...X.@.@.@.@.+.$.%.3.3.3.3.3.3.3.3.4.' w.|.|.}.}.}.}.}.}.}.}.i.",
"B ~.|.}.}.}.}.}.}.}.}.L 9 ..3.3.3.3.3.3.3.3.3.2 | 3.3.7 | 4.4.4.4.3. .| 3.4.4.4.4.3.3.3.3.3.3.3.3.3.4. .G ].}.}.}.}.}.}.}.}.}.u.",
"f Q.}.}.}.}.}.}.}.}.].C u ..3.3.3.3.3.3.3.3.%.7 | 4.3.g | 4.O.| %...2 7 ' 4.3.3.3.3.3.3.3.3.3.3.3.3.3.@.d ^.}.}.}.}.}.}.}.}.].0.",
"5 S.|.}.}.}.}.}.}.}.^.p c { 3.3.3.4.3.3.3.3.%.2 ] 4.3.g g x 8 h h 7 ' O.7 %.3.3.3.3.3.3.3.3.3.3.3.3.3.@.5 I.|.}.}.}.}.}.}.}.].<.",
"# Z.|.}.|.|.}.}.}.}.I.% v { 3.3.3.3.3.3.3.3.%.2 k $.X.9 @ h $.3. .1 8 +.8 | 4.3.3.3.4.3.3.3.4.3.3.3.3.X.4 p.'.}.}.|.}.|.|.|.).A ",
"o t.}.}.[.{.{.Y.U.K.u.$ v n %.3.4.3.3.3.3.3.%.2 0 b u 3 ' %.3.3.4.$.8 j } 8 %.4.3.3.4.3.3.3.3.3.3.3.3.{ 4 5.G.J.K.Y./.(.[.}.Q.i ",
". -.L.K.J.G.F.M.F.F.7.3 v n $.4.3.3.3.3.3.3.%.2 4 1 2 X.3.3.3.3.%.3.+.8 j 2 ' 3.3.3.3.3.3.3.3.3.3.4.$.n 0 D F.F.F.M.M.F.H.J.h.# ",
"  M c.F.M.F.F.F.F.F.5.3 v b @.3.3.3.3.3.3.3.$.$ # g $.3.$.+.%.%.+.#.%. .2 9 8 3.3.3.3.3.3.3.4.3.3.3.@.b 0 V F.F.F.F.F.F.M.F.:.X ",
"  # g.F.F.F.F.F.F.F.H 1 b v ..3.3.3.3.4.3.4. .# x %.$.#.+.3.4.4.3.$.{ { $ 4 x 3.3.3.3.3.3.3.3.3.3.3.{ b c d b.F.F.F.F.F.F.n.N . ",
"  o >.F.F.F.F.F.F.F.D 1 v b n %.4.3.3.3.3.3.8 ' 4.+...%.3.3.$.@.@.%...0 $ $ | 4.3.3.3.3.3.3.3.4.4.#.b b c e x.F.F.F.M.F.F.g.%   ",
"    N v.F.F.F.F.F.M.Z 3 v b b @.3.3.3.3.3.3.g | 4.+.+.3.3.%.j # 1 ..l $ 1 $ O.4.3.3.3.3.3.3.3.3.3.{ v b j 5 j.F.F.F.F.F.F.:.X   ",
"    # s.F.F.F.F.F.m.V 3 c b b [ %.3.3.3.3.3.' x 4.3.3.3.3.3.b # 4 j 4 # 9 $ +.3.3.3.3.3.3.3.3.3.X.b b b 0 % h.F.F.F.F.F.l.w     ",
"    . &.M.M.F.F.F.m.f 4 u b b b ..3.3.3.3.3.O.8 %.3.3.3.3.4.X.3 3 3 # 1 9 3 O.4.3.3.3.3.3.3.4.$.n b b b u % h.F.F.F.F.F.2.o     ",
"      3 g.F.F.F.F.m.d 3 9 c b b b ..3.3.3.3.%.8 @.4.3.3.3.3.+.0 + # 3 u 4 8 %.3.3.3.3.3.3.3.3.{ b b b v 9 % h.F.F.F.F.z.M       ",
"      . &.n.F.F.F.m.d 4 9 0 b b b b { $.4.3.3.k k 3.3.3.3.3.%.v # 3 9 4 2 $.3.3.3.3.3.4.4.3...v b b v c 4 % f.F.F.F.M.1.o       ",
"        # s.F.F.F.m.d 4 9 9 c v b v b n @.%.4. .4 +.4.3.3.3.#.c # 9 9 1 @.4.3.3.3.3.3.4.%.{ b b b b v u 9 % h.F.F.F.g.i         ",
"        . M l.F.G.T.V 3 9 9 9 v b b b b b [ #.+.1 l 3.3.3.3.{ u # 4 $ x 3.3.3.3.3.3.3.$.[ b b b b b u 9 9 % h.F.F.b.&.X         ",
"          o =.L.'.].C 3 9 9 9 u b b v b b b b n 4 0 ..%.%.X.b 4 $ 4 1 $.4.3.3.3.3.%.X.b b b b b b c 9 9 4 5 j.F.F.2.@           ",
"            # y.}.].K # $ 4 9 9 u b b b b b b b 4 3 v n n b c # 3 # k %.%.$.$.@...n b b b b b v v 9 9 9 4 5 j.M.d.y             ",
"              e Z.|.~.N.L p % $ 3 0 v b b b b b c # 0 c 0 0 $ O # $ b l n b b b b b b b b b b v u 4 3 $ # V v.l.M .             ",
"              . a C.|.|.[.E.V.P C % $ 2 c c v v v $ # # # # $ 4 u v b b b b b b b b b b v c 9 3 # e F w.B.^.P.B X               ",
"                . s D.|.}.|.|.}._.I.V.P F p 5 3 2 3 3 4 9 0 c j c v v c c c 0 u 9 4 4 y e V K w.N.W.].}.|.^.-.o                 ",
"                  . a Z.].}.}.}.}.}.}.}.]._.W.B.r.5.H A Z d a d d a a a d f S K P e.V.B.E._.].|.}.|.}.|.Q.H o                   ",
"                    . 5 y.].|.}.}.}.}.}.}.}.|.|.(.F.F.F.m.m.v.v.v.v.v.v.b.m.L.}.}.|.|.|.|.}.}.}.}.}.}.S.A X                     ",
"                        # 7.Q.|.}.|.}.}.}.}.}.}.U.F.F.F.F.F.F.F.F.F.F.F.F.F.J.[.}.}.}.}.}.}.}.}.|.[.i.d .                       ",
"                          o A Z.].|.}.}.}.}.}.'.H.F.F.F.F.F.F.F.F.F.F.F.F.F.H.(.}.}.}.}.}.}.|.}.Q.5.%                           ",
"                            . % 7.S.}.|.}.}.}.(.F.F.F.F.F.F.F.F.M.F.F.F.F.F.M.U.}.}.}.}.|.|.~.y.f X                             ",
"                                X a 7.S.[.}.}.Y.F.F.F.F.F.F.F.F.F.F.F.F.F.F.F.J.[.|.|.|.^.a.A O                                 ",
"                                    o a 5.C.Q.G.F.F.F.F.M.M.F.F.F.F.F.M.F.F.F.F.(.`.D.0.f O .                                   ",
"                                        X # N =.9.j.c.M.M.M.M.M.F.F.M.M.n.c.j.9.<.A % X                                         ",
"                                              X + 6 m *.>.2.9.9.9.9.1.:.o.N 6 + X                                               "
};
